<mxfile host="app.diagrams.net" modified="2023-10-09T11:03:58.429Z" agent="Mozilla/5.0 (Windows NT 10.0; Win64; x64) AppleWebKit/537.36 (KHTML, like Gecko) Chrome/117.0.0.0 Safari/537.36" etag="4fxMbJphLeawdMl2dXbc" version="22.0.4" type="github">
  <diagram name="Page-1" id="o4zR4fj9va8HjHxiYpY7">
    <mxGraphModel dx="1434" dy="750" grid="1" gridSize="10" guides="1" tooltips="1" connect="1" arrows="1" fold="1" page="1" pageScale="1" pageWidth="850" pageHeight="1100" math="0" shadow="0">
      <root>
        <mxCell id="0" />
        <mxCell id="1" parent="0" />
        <mxCell id="wn4iGu8Y_LXzsr2LiNWY-1" value="Administrator" style="shape=umlLifeline;perimeter=lifelinePerimeter;whiteSpace=wrap;html=1;container=1;dropTarget=0;collapsible=0;recursiveResize=0;outlineConnect=0;portConstraint=eastwest;newEdgeStyle={&quot;curved&quot;:0,&quot;rounded&quot;:0};" vertex="1" parent="1">
          <mxGeometry x="180" y="120" width="100" height="600" as="geometry" />
        </mxCell>
        <mxCell id="wn4iGu8Y_LXzsr2LiNWY-2" value="Library" style="shape=umlLifeline;perimeter=lifelinePerimeter;whiteSpace=wrap;html=1;container=1;dropTarget=0;collapsible=0;recursiveResize=0;outlineConnect=0;portConstraint=eastwest;newEdgeStyle={&quot;curved&quot;:0,&quot;rounded&quot;:0};" vertex="1" parent="1">
          <mxGeometry x="440" y="120" width="100" height="600" as="geometry" />
        </mxCell>
        <mxCell id="wn4iGu8Y_LXzsr2LiNWY-4" value="" style="html=1;points=[[0,0,0,0,5],[0,1,0,0,-5],[1,0,0,0,5],[1,1,0,0,-5]];perimeter=orthogonalPerimeter;outlineConnect=0;targetShapes=umlLifeline;portConstraint=eastwest;newEdgeStyle={&quot;curved&quot;:0,&quot;rounded&quot;:0};" vertex="1" parent="wn4iGu8Y_LXzsr2LiNWY-2">
          <mxGeometry x="45" y="180" width="10" height="300" as="geometry" />
        </mxCell>
        <mxCell id="wn4iGu8Y_LXzsr2LiNWY-3" value="Each Post" style="shape=umlLifeline;perimeter=lifelinePerimeter;whiteSpace=wrap;html=1;container=1;dropTarget=0;collapsible=0;recursiveResize=0;outlineConnect=0;portConstraint=eastwest;newEdgeStyle={&quot;curved&quot;:0,&quot;rounded&quot;:0};" vertex="1" parent="1">
          <mxGeometry x="720" y="120" width="100" height="600" as="geometry" />
        </mxCell>
        <mxCell id="wn4iGu8Y_LXzsr2LiNWY-5" value="" style="html=1;points=[[0,0,0,0,5],[0,1,0,0,-5],[1,0,0,0,5],[1,1,0,0,-5]];perimeter=orthogonalPerimeter;outlineConnect=0;targetShapes=umlLifeline;portConstraint=eastwest;newEdgeStyle={&quot;curved&quot;:0,&quot;rounded&quot;:0};" vertex="1" parent="wn4iGu8Y_LXzsr2LiNWY-3">
          <mxGeometry x="45" y="180" width="10" height="290" as="geometry" />
        </mxCell>
        <mxCell id="wn4iGu8Y_LXzsr2LiNWY-6" value="Pending Comments" style="shape=umlLifeline;perimeter=lifelinePerimeter;whiteSpace=wrap;html=1;container=1;dropTarget=0;collapsible=0;recursiveResize=0;outlineConnect=0;portConstraint=eastwest;newEdgeStyle={&quot;curved&quot;:0,&quot;rounded&quot;:0};" vertex="1" parent="1">
          <mxGeometry x="1040" y="120" width="100" height="600" as="geometry" />
        </mxCell>
        <mxCell id="wn4iGu8Y_LXzsr2LiNWY-7" value="" style="html=1;points=[[0,0,0,0,5],[0,1,0,0,-5],[1,0,0,0,5],[1,1,0,0,-5]];perimeter=orthogonalPerimeter;outlineConnect=0;targetShapes=umlLifeline;portConstraint=eastwest;newEdgeStyle={&quot;curved&quot;:0,&quot;rounded&quot;:0};" vertex="1" parent="wn4iGu8Y_LXzsr2LiNWY-6">
          <mxGeometry x="45" y="180" width="10" height="290" as="geometry" />
        </mxCell>
        <mxCell id="wn4iGu8Y_LXzsr2LiNWY-10" value="" style="endArrow=classic;html=1;rounded=0;" edge="1" parent="1" source="wn4iGu8Y_LXzsr2LiNWY-1">
          <mxGeometry width="50" height="50" relative="1" as="geometry">
            <mxPoint x="810" y="410" as="sourcePoint" />
            <mxPoint x="480" y="360" as="targetPoint" />
          </mxGeometry>
        </mxCell>
        <mxCell id="wn4iGu8Y_LXzsr2LiNWY-11" value="Display pending comments" style="edgeLabel;html=1;align=center;verticalAlign=middle;resizable=0;points=[];" vertex="1" connectable="0" parent="wn4iGu8Y_LXzsr2LiNWY-10">
          <mxGeometry x="-0.1737" relative="1" as="geometry">
            <mxPoint x="1" as="offset" />
          </mxGeometry>
        </mxCell>
        <mxCell id="wn4iGu8Y_LXzsr2LiNWY-15" value="* Get Pending Comments" style="html=1;verticalAlign=bottom;endArrow=block;curved=0;rounded=0;" edge="1" parent="1">
          <mxGeometry width="80" relative="1" as="geometry">
            <mxPoint x="500" y="360" as="sourcePoint" />
            <mxPoint x="760" y="360" as="targetPoint" />
          </mxGeometry>
        </mxCell>
        <mxCell id="wn4iGu8Y_LXzsr2LiNWY-16" value="Pending comments" style="html=1;verticalAlign=bottom;endArrow=open;dashed=1;endSize=8;curved=0;rounded=0;" edge="1" parent="1">
          <mxGeometry relative="1" as="geometry">
            <mxPoint x="764" y="450" as="sourcePoint" />
            <mxPoint x="494" y="450" as="targetPoint" />
          </mxGeometry>
        </mxCell>
        <mxCell id="wn4iGu8Y_LXzsr2LiNWY-17" value="Are you pending" style="html=1;verticalAlign=bottom;endArrow=block;curved=0;rounded=0;" edge="1" parent="1">
          <mxGeometry width="80" relative="1" as="geometry">
            <mxPoint x="780" y="370" as="sourcePoint" />
            <mxPoint x="1079.5" y="370" as="targetPoint" />
          </mxGeometry>
        </mxCell>
        <mxCell id="wn4iGu8Y_LXzsr2LiNWY-18" value="Request Approval" style="html=1;verticalAlign=bottom;endArrow=block;curved=0;rounded=0;" edge="1" parent="1" target="wn4iGu8Y_LXzsr2LiNWY-6">
          <mxGeometry x="0.1874" y="10" width="80" relative="1" as="geometry">
            <mxPoint x="500" y="520" as="sourcePoint" />
            <mxPoint x="580" y="520" as="targetPoint" />
            <mxPoint as="offset" />
          </mxGeometry>
        </mxCell>
        <mxCell id="wn4iGu8Y_LXzsr2LiNWY-19" value="Approve" style="html=1;verticalAlign=bottom;endArrow=block;curved=0;rounded=0;" edge="1" parent="1">
          <mxGeometry width="80" relative="1" as="geometry">
            <mxPoint x="1010" y="580" as="sourcePoint" />
            <mxPoint x="1090" y="580" as="targetPoint" />
          </mxGeometry>
        </mxCell>
        <mxCell id="wn4iGu8Y_LXzsr2LiNWY-20" value="Actor" style="shape=umlActor;verticalLabelPosition=bottom;verticalAlign=top;html=1;" vertex="1" parent="1">
          <mxGeometry x="980" y="550" width="30" height="60" as="geometry" />
        </mxCell>
      </root>
    </mxGraphModel>
  </diagram>
</mxfile>
